{"title":"Hollywood Sex Wars 2011 DVDRiP XViD-OCW","uid":6929596,"size":1086241163,"categoryP":"video","categoryS":"movies","magnet":"?xt=urn:btih:cfd14ce132f58dc6444bc1fc8c1dacde0893c3e7&amp;dn=Hollywood+Sex+Wars+2011+DVDRiP+XViD-OCW&amp;tr=udp%3A%2F%2Ftracker.openbittorrent.com%3A80&amp;tr=udp%3A%2F%2Fopen.demonii.com%3A1337&amp;tr=udp%3A%2F%2Ftracker.coppersurfer.tk%3A6969&amp;tr=udp%3A%2F%2Fexodus.desync.com%3A6969","seeders":4,"leechers":5,"uploader":"LegendET","files":2,"time":1325614335,"description":"[center]\n[img]http://img840.imageshack.us/img840/9524/pothy.jpg[/img]\n\n\nGenre : Comedy\n\nPlot : Max (Dominique Purdy), Aaron (Richard Blair) and Glen (Nicholas Cooper) have a track record littered with strike-outs and misfit hook-ups. The boys embark on a mission to up their hot babe batting average. They meet Hollywood Casanova Johnny Eyelash (Mario Diaz) who teaches these boys the game of scoring A-list arm candy. But there is one problem, the girls are organized, cunning and have an agenda of their own. Its not long before the girls, led by Big Wendy (Jenae Alt) and Little Wendy (Eli Jane) pick up on Johnny's tactics and Hollywood becomes one big booby trap.\n\n\nComplete name : Hollywood.Sex.Wars.2011.DVDRip.XviD-OCW.avi \nFormat : AVI \nFormat/Info : Audio Video Interleave \nFile size : 1.01 GiB \nDuration : 1h 38mn \nOverall bit rate : 1 464 Kbps \nWriting library : MPlayer \n\nVideo \nID : 0 \nFormat : MPEG-4 Visual \nFormat profile : Advanced Simple@L5 \nFormat settings, BVOP : 2 \nFormat settings, QPel : No \nFormat settings, GMC : No warppoints \nFormat settings, Matrix : Default (H.263) \nCodec ID : XVID \nCodec ID/Hint : XviD \nDuration : 1h 38mn \nBit rate : 1 196 Kbps \nWidth : 640 pixels \nHeight : 352 pixels \nDisplay aspect ratio : 16:9 \nFrame rate : 23.976 fps \nColor space : YUV \nChroma subsampling : 4:2:0 \nBit depth : 8 bits \nScan type : Progressive \nCompression mode : Lossy \nBits/(Pixel*Frame) : 0.221 \nStream size : 846 MiB (82%) \nWriting library : XviD 63 \n\nAudio \nID : 1 \nFormat : MPEG Audio \nFormat version : Version 1 \nFormat profile : Layer 3 \nMode : Joint stereo \nMode extension : MS Stereo \nCodec ID : 55 \nCodec ID/Hint : MP3 \nDuration : 1h 38mn \nBit rate mode : Constant \nBit rate : 256 Kbps \nChannel(s) : 2 channels \nSampling rate : 44.1 KHz \nCompression mode : Lossy \nDelay relative to video : 42ms \nStream size : 181 MiB (17%) \nAlignment : Aligned on interleaves \nInterleave, duration : 26 ms (0.63 video frame) \nInterleave, preload duration : 809 ms \nWriting library : LAME3.98.4\n &lt;a href=&quot;\nhttp://www.imdb.com/title/tt1764366&quot; rel=&quot;nofollow&quot; target=&quot;_NEW&quot;&gt;\nhttp://www.imdb.com/title/tt1764366&lt;/a&gt;\n\n\n[img]http://img268.imageshack.us/img268/2615/vlcsnap2012010310h24m15.png[/img]\n[img]http://img845.imageshack.us/img845/1604/vlcsnap2012010310h26m13.png[/img]\n[img]http://img221.imageshack.us/img221/3536/vlcsnap2012010310h26m38.png[/img]\n[img]http://img259.imageshack.us/img259/4264/vlcsnap2012010310h27m55.png[/img][/center]","torrent":{"xt":"urn:btih:cfd14ce132f58dc6444bc1fc8c1dacde0893c3e7","amp;dn":"Hollywood+Sex+Wars+2011+DVDRiP+XViD-OCW","amp;tr":["udp%3A%2F%2Ftracker.openbittorrent.com%3A80","udp%3A%2F%2Fopen.demonii.com%3A1337","udp%3A%2F%2Ftracker.coppersurfer.tk%3A6969","udp%3A%2F%2Fexodus.desync.com%3A6969"],"infoHash":"cfd14ce132f58dc6444bc1fc8c1dacde0893c3e7","infoHashBuffer":{"type":"Buffer","data":[207,209,76,225,50,245,141,198,68,75,193,252,140,29,172,222,8,147,195,231]},"announce":[],"urlList":[]}}